<?xml version="1.0" standalone="no"?>
<!DOCTYPE svg PUBLIC "-//W3C//DTD SVG 20010904//EN"
 "http://www.w3.org/TR/2001/REC-SVG-20010904/DTD/svg10.dtd">
<svg version="1.0" xmlns="http://www.w3.org/2000/svg"
 width="182.000000pt" height="182.000000pt" viewBox="0 0 182.000000 182.000000"
 preserveAspectRatio="xMidYMid meet">
<metadata>
Created by potrace 1.11, written by Peter Selinger 2001-2013
</metadata>
<g transform="translate(0.000000,182.000000) scale(0.100000,-0.100000)"
fill="#000000" stroke="none">
<path d="M311 1513 c-15 -59 -62 -246 -66 -263 -6 -26 -235 -944 -241 -962 -5
-17 15 -18 315 -18 l320 0 10 38 c21 79 43 168 46 182 4 21 55 221 61 243 5
16 -7 17 -156 17 -149 0 -161 1 -156 18 6 18 116 457 121 482 5 23 65 263 71
283 5 16 -7 17 -155 17 l-160 0 -10 -37z"/>
<path d="M831 1513 c-6 -21 -37 -148 -71 -283 -33 -135 -63 -253 -66 -262 -5
-17 10 -18 215 -18 l220 0 10 38 c6 20 37 147 71 282 33 135 63 253 66 263 5
16 -10 17 -215 17 l-220 0 -10 -37z"/>
<path d="M1471 1513 c-15 -55 -132 -525 -136 -543 -3 -14 -26 -105 -46 -182
l-10 -38 -159 0 -159 0 -10 -37 c-17 -64 -63 -247 -66 -263 -4 -19 -34 -139
-41 -162 -5 -17 15 -18 315 -18 l320 0 10 38 c6 20 76 300 156 622 80 322 148
593 151 603 5 16 -7 17 -155 17 l-160 0 -10 -37z"/>
</g>
</svg>
